<?xml version="1.0" encoding="UTF-8" standalone="no"?>
<svg
   xmlns:dc="http://purl.org/dc/elements/1.1/"
   xmlns:cc="http://creativecommons.org/ns#"
   xmlns:rdf="http://www.w3.org/1999/02/22-rdf-syntax-ns#"
   xmlns:svg="http://www.w3.org/2000/svg"
   xmlns="http://www.w3.org/2000/svg"
   xmlns:sodipodi="http://sodipodi.sourceforge.net/DTD/sodipodi-0.dtd"
   xmlns:inkscape="http://www.inkscape.org/namespaces/inkscape"
   height="18"
   width="18"
   version="1.1"
   viewBox="0 0 4.7624998 4.7625"
   id="svg8"
   sodipodi:docname="gplus.svg"
   inkscape:version="0.92.1 r15371">
  <metadata
     id="metadata14">
    <rdf:RDF>
      <cc:Work
         rdf:about="">
        <dc:format>image/svg+xml</dc:format>
        <dc:type
           rdf:resource="http://purl.org/dc/dcmitype/StillImage" />
        <dc:title></dc:title>
      </cc:Work>
    </rdf:RDF>
  </metadata>
  <defs
     id="defs12" />
  <sodipodi:namedview
     pagecolor="#ffffff"
     bordercolor="#666666"
     borderopacity="1"
     objecttolerance="10"
     gridtolerance="10"
     guidetolerance="10"
     inkscape:pageopacity="0"
     inkscape:pageshadow="2"
     inkscape:window-width="1404"
     inkscape:window-height="751"
     id="namedview10"
     showgrid="false"
     inkscape:zoom="22.627417"
     inkscape:cx="9.1501616"
     inkscape:cy="8.3858636"
     inkscape:window-x="498"
     inkscape:window-y="162"
     inkscape:window-maximized="0"
     inkscape:current-layer="svg8" />
  <path
     style="opacity:1;fill:#d34836;fill-opacity:1;fill-rule:nonzero;stroke:none;stroke-width:0.2006952;stroke-linecap:butt;stroke-linejoin:miter;stroke-miterlimit:4;stroke-dasharray:none;stroke-dashoffset:0;stroke-opacity:0.77142861"
     d="M 4.7624999,2.3812494 A 2.3812505,2.3812505 0 0 1 2.3812505,4.7624999 2.3812505,2.3812505 0 0 1 0,2.3812494 2.3812505,2.3812505 0 0 1 2.3812505,-3.2625002e-7 2.3812505,2.3812505 0 0 1 4.7624999,2.3812494 Z"
     id="path4482"
     inkscape:connector-curvature="0" />
  <path
     style="fill:#ffffff;fill-rule:evenodd;stroke-width:0.10478537"
     id="path4"
     class="style-scope yt-icon"
     d="M 0.77287023,2.3078595 C 0.78178639,1.7738327 1.2722302,1.3061317 1.8057053,1.3239479 2.0612886,1.3120939 2.3015762,1.4234362 2.4973519,1.5798305 2.4138255,1.6748384 2.3273037,1.7664241 2.2348257,1.8520475 1.9995072,1.689197 1.6647682,1.6426987 1.4294497,1.8307739 1.092737,2.0638659 1.0774414,2.6142271 1.4012552,2.8651353 c 0.3149327,0.286082 0.9102244,0.1440112 0.9972396,-0.2939845 -0.1972911,-0.00296 -0.3950402,0 -0.592296,-0.00642 -4.924e-4,-0.1177979 -9.85e-4,-0.235597 -4.924e-4,-0.3533953 0.3297698,-9.849e-4 0.6595397,-0.00148 0.9898032,9.85e-4 C 2.8152812,2.4894808 2.778699,2.7844532 2.6086152,3.0136292 2.3510232,3.3764036 1.8338656,3.4823128 1.4304376,3.3269063 1.0255291,3.1724877 0.73875595,2.7443703 0.77287116,2.3078563 M 3.3607569,1.9574598 h 0.2941745 c 4.925e-4,0.0985 9.849e-4,0.1974596 0.00198,0.2959601 0.098399,9.851e-4 0.1972557,9.851e-4 0.2956546,0.00198 v 0.2944785 c -0.098399,9.85e-4 -0.1967625,0.00148 -0.2956546,0.00247 -9.85e-4,0.098994 -0.00148,0.1974949 -0.00198,0.2959602 H 3.3602636 C 3.3592786,2.7498396 3.3592786,2.651339 3.3582836,2.5528384 3.2598846,2.5518535 3.1609925,2.5508584 3.062629,2.5498784 V 2.2553956 c 0.098364,-9.849e-4 0.1967624,-0.00148 0.2956546,-0.00198 4.925e-4,-0.098994 0.00148,-0.1974597 0.00247,-0.2959602"
     inkscape:connector-curvature="0"
     sodipodi:nodetypes="cccccccccccccccccccccccccc" />
</svg>
