<?xml version="1.0" encoding="UTF-8" standalone="no"?>
<svg
   xmlns:dc="http://purl.org/dc/elements/1.1/"
   xmlns:cc="http://creativecommons.org/ns#"
   xmlns:rdf="http://www.w3.org/1999/02/22-rdf-syntax-ns#"
   xmlns:svg="http://www.w3.org/2000/svg"
   xmlns="http://www.w3.org/2000/svg"
   xmlns:sodipodi="http://sodipodi.sourceforge.net/DTD/sodipodi-0.dtd"
   xmlns:inkscape="http://www.inkscape.org/namespaces/inkscape"
   height="18"
   width="18"
   version="1.1"
   viewBox="0 0 4.7624998 4.7625"
   id="svg8"
   sodipodi:docname="ld.svg"
   inkscape:version="0.92.1 r15371"
   inkscape:export-filename="/home/kapa/projects/NewStream/data/icons/social/id.png"
   inkscape:export-xdpi="96"
   inkscape:export-ydpi="96">
  <metadata
     id="metadata14">
    <rdf:RDF>
      <cc:Work
         rdf:about="">
        <dc:format>image/svg+xml</dc:format>
        <dc:type
           rdf:resource="http://purl.org/dc/dcmitype/StillImage" />
        <dc:title></dc:title>
      </cc:Work>
    </rdf:RDF>
  </metadata>
  <defs
     id="defs12" />
  <sodipodi:namedview
     pagecolor="#ffffff"
     bordercolor="#666666"
     borderopacity="1"
     objecttolerance="10"
     gridtolerance="10"
     guidetolerance="10"
     inkscape:pageopacity="0"
     inkscape:pageshadow="2"
     inkscape:window-width="1404"
     inkscape:window-height="737"
     id="namedview10"
     showgrid="false"
     inkscape:zoom="21.454545"
     inkscape:cx="9.4160898"
     inkscape:cy="9.2520919"
     inkscape:window-x="86"
     inkscape:window-y="205"
     inkscape:window-maximized="0"
     inkscape:current-layer="svg8" />
  <path
     style="opacity:1;fill:#0077b5;fill-opacity:1;fill-rule:nonzero;stroke:none;stroke-width:0.2006952;stroke-linecap:butt;stroke-linejoin:miter;stroke-miterlimit:4;stroke-dasharray:none;stroke-dashoffset:0;stroke-opacity:0.77142861"
     d="M 4.7624999,2.3812494 A 2.3812505,2.3812505 0 0 1 2.3812505,4.7624999 2.3812505,2.3812505 0 0 1 0,2.3812494 2.3812505,2.3812505 0 0 1 2.3812505,-3.2625002e-7 2.3812505,2.3812505 0 0 1 4.7624999,2.3812494 Z"
     id="path4482"
     inkscape:connector-curvature="0" />
  <path
     style="fill:#ffffff;fill-rule:evenodd;stroke-width:0.079375"
     id="path4-5"
     class="style-scope yt-icon"
     d="m 1.4869201,1.7527296 c 0.1700075,0 0.30783,-0.1256874 0.30783,-0.2809013 0,-0.1553512 -0.1378225,-0.2812034 -0.30783,-0.2812034 -0.1701721,0 -0.3079946,0.1258522 -0.3079946,0.2812034 0,0.1552139 0.1378225,0.2809013 0.3079946,0.2809013 M 1.2494811,3.5597184 H 1.8018134 V 1.966736 H 1.2494811 Z m 1.327538,-0.8859849 c 0,-0.1826807 0.086431,-0.3613236 0.2930956,-0.3613236 0.2066651,0 0.2574808,0.1786429 0.2574808,0.3569563 V 3.5393719 H 3.6774584 V 2.633797 c 0,-0.6291508 -0.3718983,-0.7376165 -0.6006786,-0.7376165 -0.2285882,0 -0.3546671,0.077318 -0.4997607,0.2646685 V 1.9463895 H 2.0255922 v 1.5929824 h 0.5514269 z"
     inkscape:connector-curvature="0" />
</svg>
