<?xml version="1.0" encoding="UTF-8" standalone="no"?>
<svg
   xmlns:dc="http://purl.org/dc/elements/1.1/"
   xmlns:cc="http://creativecommons.org/ns#"
   xmlns:rdf="http://www.w3.org/1999/02/22-rdf-syntax-ns#"
   xmlns:svg="http://www.w3.org/2000/svg"
   xmlns="http://www.w3.org/2000/svg"
   xmlns:sodipodi="http://sodipodi.sourceforge.net/DTD/sodipodi-0.dtd"
   xmlns:inkscape="http://www.inkscape.org/namespaces/inkscape"
   height="16"
   width="16"
   version="1.1"
   viewBox="0 0 4.2333332 4.2333333"
   id="svg8"
   sodipodi:docname="mail.svg"
   inkscape:version="0.92.1 r15371">
  <metadata
     id="metadata14">
    <rdf:RDF>
      <cc:Work
         rdf:about="">
        <dc:format>image/svg+xml</dc:format>
        <dc:type
           rdf:resource="http://purl.org/dc/dcmitype/StillImage" />
        <dc:title></dc:title>
      </cc:Work>
    </rdf:RDF>
  </metadata>
  <defs
     id="defs12" />
  <sodipodi:namedview
     pagecolor="#515151"
     bordercolor="#666666"
     borderopacity="1"
     objecttolerance="10"
     gridtolerance="10"
     guidetolerance="10"
     inkscape:pageopacity="0"
     inkscape:pageshadow="2"
     inkscape:window-width="1920"
     inkscape:window-height="1173"
     id="namedview10"
     showgrid="false"
     inkscape:zoom="16"
     inkscape:cx="19.451659"
     inkscape:cy="7.5551893"
     inkscape:window-x="0"
     inkscape:window-y="27"
     inkscape:window-maximized="1"
     inkscape:current-layer="svg8"
     inkscape:showpageshadow="false" />
  <path
     style="opacity:1;fill:#fdfdff;fill-opacity:1;fill-rule:nonzero;stroke:none;stroke-width:0.57965267;stroke-linecap:butt;stroke-linejoin:miter;stroke-miterlimit:4;stroke-dasharray:none;stroke-dashoffset:0;stroke-opacity:0.77142861"
     d="M 7.7753906,9.3183594 C 8.7257583,9.2855694 13.380968,5.4386543 15.933594,3.2734375 15.797427,2.8833129 15.437713,2.5996094 15,2.5996094 H 1 C 0.42197227,2.7092467 0.21594394,2.9519913 -2.2254594e-4,3.4636948 c 0,0 6.39721194594,5.6844839 7.77561314594,5.8546646 z M 16,4.9363912 C 13.440737,7.1064994 8.7224543,11.005278 7.7753906,11.037954 6.7951126,11.037954 2.4392857,7.2343575 0,5.0379537 l 0,7.5616553 c 0,0.554 0.44600001,1 1,1 h 14 c 0.554,0 1,-0.446 1,-1 z"
     transform="scale(0.26458333)"
     id="rect4538"
     inkscape:connector-curvature="0"
     sodipodi:nodetypes="ccscsccccssssc" />
</svg>
