<?xml version="1.0" encoding="UTF-8" standalone="no"?>
<svg
   xmlns:dc="http://purl.org/dc/elements/1.1/"
   xmlns:cc="http://creativecommons.org/ns#"
   xmlns:rdf="http://www.w3.org/1999/02/22-rdf-syntax-ns#"
   xmlns:svg="http://www.w3.org/2000/svg"
   xmlns="http://www.w3.org/2000/svg"
   xmlns:sodipodi="http://sodipodi.sourceforge.net/DTD/sodipodi-0.dtd"
   xmlns:inkscape="http://www.inkscape.org/namespaces/inkscape"
   height="18"
   width="18"
   version="1.1"
   viewBox="0 0 4.7624998 4.7625"
   id="svg8"
   sodipodi:docname="reddit.svg"
   inkscape:version="0.92.1 r15371"
   inkscape:export-filename="/home/kapa/projects/NewStream/data/icons/social/red.png"
   inkscape:export-xdpi="96"
   inkscape:export-ydpi="96">
  <metadata
     id="metadata14">
    <rdf:RDF>
      <cc:Work
         rdf:about="">
        <dc:format>image/svg+xml</dc:format>
        <dc:type
           rdf:resource="http://purl.org/dc/dcmitype/StillImage" />
        <dc:title />
      </cc:Work>
    </rdf:RDF>
  </metadata>
  <defs
     id="defs12" />
  <sodipodi:namedview
     pagecolor="#ffffff"
     bordercolor="#666666"
     borderopacity="1"
     objecttolerance="10"
     gridtolerance="10"
     guidetolerance="10"
     inkscape:pageopacity="0"
     inkscape:pageshadow="2"
     inkscape:window-width="1404"
     inkscape:window-height="737"
     id="namedview10"
     showgrid="false"
     inkscape:zoom="15.170654"
     inkscape:cx="2.6614851"
     inkscape:cy="7.6977406"
     inkscape:window-x="463"
     inkscape:window-y="196"
     inkscape:window-maximized="0"
     inkscape:current-layer="svg8" />
  <path
     style="opacity:1;fill:#ff4500;fill-opacity:1;fill-rule:nonzero;stroke:none;stroke-width:0.2006952;stroke-linecap:butt;stroke-linejoin:miter;stroke-miterlimit:4;stroke-dasharray:none;stroke-dashoffset:0;stroke-opacity:0.77142861"
     d="M 4.7624999,2.3812494 A 2.3812505,2.3812505 0 0 1 2.3812505,4.7624999 2.3812505,2.3812505 0 0 1 0,2.3812494 2.3812505,2.3812505 0 0 1 2.3812505,-3.2625002e-7 2.3812505,2.3812505 0 0 1 4.7624999,2.3812494 Z"
     id="path4482"
     inkscape:connector-curvature="0" />
  <path
     style="fill:#fdfdfd;fill-rule:nonzero;stroke-width:0.08918526"
     inkscape:connector-curvature="0"
     d="M 2.7370477,3.5409058 C 2.8827476,3.5067328 2.9882416,3.4700978 3.0918423,3.4176959 3.4142817,3.2546031 3.6161477,2.9838517 3.6161477,2.7144747 c 0,-0.081436 0.00175,-0.085229 0.069625,-0.1509307 0.053872,-0.052147 0.074952,-0.085843 0.09317,-0.1489253 0.0217,-0.07514 0.021771,-0.087636 8.927e-4,-0.1594509 C 3.7212707,2.0537155 3.5117949,1.9629579 3.3243205,2.0578114 L 3.2518622,2.094472 3.1771904,2.048526 C 3.0335871,1.9601663 2.7781777,1.8736269 2.6134937,1.8575309 2.5683702,1.8531151 2.5114837,1.8465084 2.4870778,1.8428455 l -0.044373,-0.00666 0.019055,-0.095386 c 0.010483,-0.052463 0.032319,-0.1560019 0.04853,-0.2300873 0.016211,-0.074085 0.036524,-0.1745793 0.045138,-0.2233197 0.012452,-0.070449 0.020946,-0.088619 0.041429,-0.088619 0.014172,0 0.1155405,0.019141 0.2252641,0.042537 0.1097234,0.023395 0.2017551,0.042537 0.2045137,0.042537 0.00275,0 0.00894,0.020957 0.013753,0.046571 0.012157,0.064803 0.043727,0.1050425 0.1082235,0.1379468 0.1547911,0.078968 0.3290176,-0.026248 0.3290176,-0.1986963 0,-0.2136545 -0.2634394,-0.30696367 -0.3973206,-0.1407293 -0.025874,0.032127 -0.038856,0.038016 -0.063805,0.028944 -0.017228,-0.00627 -0.1355843,-0.032731 -0.2630158,-0.058811 -0.1687713,-0.03454 -0.2380004,-0.043439 -0.2549181,-0.032767 -0.025829,0.016293 -0.022494,0.00426 -0.093657,0.3380611 -0.084643,0.3970415 -0.089756,0.4195282 -0.097052,0.4268236 -0.00385,0.00385 -0.065065,0.013018 -0.1360197,0.020358 -0.2152653,0.022271 -0.4518321,0.098277 -0.6113179,0.1964103 l -0.073744,0.045375 -0.072422,-0.03609 c -0.1890485,-0.094207 -0.3988758,-0.00342 -0.45740653,0.1979274 -0.0208775,0.071816 -0.0208067,0.08431 8.937e-4,0.1594509 0.018218,0.063083 0.0392988,0.096777 0.0931695,0.1489254 0.067874,0.065702 0.069625,0.069494 0.069625,0.1509305 0,0.372112 0.3824415,0.7272256 0.893279,0.8294492 0.1692347,0.033865 0.1807176,0.034729 0.3970129,0.02987 0.1413577,-0.00318 0.2432527,-0.013452 0.3261178,-0.032887 z M 2.1407132,3.2706713 c -0.11732,-0.026413 -0.2500048,-0.085344 -0.288883,-0.1283034 -0.031001,-0.034256 -0.017747,-0.086148 0.022004,-0.086148 0.015485,0 0.051744,0.016102 0.080574,0.035782 0.1946764,0.1328887 0.6339822,0.1324069 0.8293071,-9.078e-4 0.062915,-0.042941 0.1144002,-0.041756 0.1207467,0.00278 0.00299,0.020958 -0.010382,0.041807 -0.042553,0.066341 C 2.7057295,3.2793391 2.3923759,3.327332 2.1407132,3.2706727 Z M 1.7829053,2.7438038 C 1.7098599,2.704171 1.673739,2.6409469 1.6736732,2.5526111 1.6736029,2.4513584 1.7206326,2.3858382 1.8161725,2.3541049 c 0.067995,-0.022584 0.076115,-0.022584 0.1352846,1.33e-5 0.1592327,0.060811 0.1918182,0.2594664 0.059974,0.3656259 -0.068719,0.055332 -0.1542863,0.06434 -0.2285258,0.02406 z m 0.9895898,0.00654 C 2.7048031,2.7151376 2.6669627,2.6723365 2.6509481,2.6128641 2.6213223,2.5028429 2.6770953,2.3954552 2.7853283,2.3541204 c 0.05917,-0.022598 0.06729,-0.022598 0.1352849,-1.34e-5 0.09554,0.031734 0.1425747,0.097254 0.1424994,0.1985062 -7.26e-5,0.089944 -0.036908,0.1526568 -0.1122583,0.1910979 -0.067779,0.034578 -0.1208336,0.036551 -0.1783592,0.00663 z"
     class="style-scope yt-icon"
     id="path4" />
</svg>
