<?xml version="1.0" encoding="UTF-8" standalone="no"?>
<svg
   xmlns:dc="http://purl.org/dc/elements/1.1/"
   xmlns:cc="http://creativecommons.org/ns#"
   xmlns:rdf="http://www.w3.org/1999/02/22-rdf-syntax-ns#"
   xmlns:svg="http://www.w3.org/2000/svg"
   xmlns="http://www.w3.org/2000/svg"
   xmlns:sodipodi="http://sodipodi.sourceforge.net/DTD/sodipodi-0.dtd"
   xmlns:inkscape="http://www.inkscape.org/namespaces/inkscape"
   height="18"
   width="18"
   version="1.1"
   viewBox="0 0 4.7624998 4.7625"
   id="svg8"
   sodipodi:docname="twit.svg"
   inkscape:version="0.92.1 r15371">
  <metadata
     id="metadata14">
    <rdf:RDF>
      <cc:Work
         rdf:about="">
        <dc:format>image/svg+xml</dc:format>
        <dc:type
           rdf:resource="http://purl.org/dc/dcmitype/StillImage" />
        <dc:title></dc:title>
      </cc:Work>
    </rdf:RDF>
  </metadata>
  <defs
     id="defs12" />
  <sodipodi:namedview
     pagecolor="#ffffff"
     bordercolor="#666666"
     borderopacity="1"
     objecttolerance="10"
     gridtolerance="10"
     guidetolerance="10"
     inkscape:pageopacity="0"
     inkscape:pageshadow="2"
     inkscape:window-width="1404"
     inkscape:window-height="751"
     id="namedview10"
     showgrid="false"
     inkscape:zoom="16"
     inkscape:cx="8.725316"
     inkscape:cy="6.6366679"
     inkscape:window-x="114"
     inkscape:window-y="177"
     inkscape:window-maximized="0"
     inkscape:current-layer="svg8" />
  <path
     style="opacity:1;fill:#1da1f2;fill-opacity:1;fill-rule:nonzero;stroke:none;stroke-width:0.2006952;stroke-linecap:butt;stroke-linejoin:miter;stroke-miterlimit:4;stroke-dasharray:none;stroke-dashoffset:0;stroke-opacity:0.77142861"
     d="M 4.7624999,2.3812494 A 2.3812505,2.3812505 0 0 1 2.3812505,4.7624999 2.3812505,2.3812505 0 0 1 0,2.3812494 2.3812505,2.3812505 0 0 1 2.3812505,-3.2625002e-7 2.3812505,2.3812505 0 0 1 4.7624999,2.3812494 Z"
     id="path4482"
     inkscape:connector-curvature="0" />
  <path
     style="fill:#ffffff;fill-rule:evenodd;stroke-width:0.079375"
     inkscape:connector-curvature="0"
     d="m 3.5970005,1.4695766 c -0.073801,0.047272 -0.2432474,0.115965 -0.3268134,0.115965 v 1.429e-4 C 3.1747681,1.4860015 3.0404301,1.4237719 2.8914449,1.4237719 c -0.2893624,0 -0.524002,0.2346396 -0.524002,0.5238891 0,0.040188 0.00466,0.079389 0.013264,0.1169812 h -8.73e-5 C 1.9881081,2.054341 1.5588198,1.8576039 1.3003889,1.5208845 c -0.1588911,0.2750257 -0.021392,0.580898 0.1589193,0.6923477 -0.061722,0.00466 -0.1753447,-0.00711 -0.2288257,-0.059295 -0.00358,0.1825414 0.084187,0.4244058 0.4042269,0.5121487 -0.061637,0.033161 -0.1707445,0.02365 -0.218186,0.016595 0.016651,0.1540933 0.2324381,0.3555436 0.4684041,0.3555436 -0.084102,0.097282 -0.4005297,0.2737273 -0.7556217,0.2175933 0.2411589,0.1467273 0.522224,0.2317044 0.8197144,0.2317044 0.8453967,0 1.5019303,-0.6851509 1.466596,-1.5303783 -1.428e-4,-9.31e-4 -1.428e-4,-0.00186 -2.222e-4,-0.00288 8.73e-5,-0.00217 2.222e-4,-0.00435 2.222e-4,-0.0066 0,-0.00262 -2.222e-4,-0.00511 -3.095e-4,-0.00765 0.076962,-0.052634 0.1802271,-0.1457395 0.254,-0.2682803 -0.042785,0.023566 -0.1711396,0.070753 -0.290576,0.082465 0.076651,-0.041374 0.1902177,-0.1768686 0.2182707,-0.284621"
     class="style-scope yt-icon"
     id="path4-3" />
</svg>
