<svg xmlns="http://www.w3.org/2000/svg" height="16" width="18" version="1.1" viewBox="0 0 4.7624999 4.2333333">
 <path d="m8.84 1c-0.96-0.002-1.94 3.39-2.72 3.95s-4.3 0.43-4.6 1.34c-0.3 0.92 2.62 2.9 2.92 3.81 0.29 0.9-0.92 4.2-0.14 4.8 0.77 0.6 3.56-1.6 4.51-1.6 0.96 0 3.79 2.2 4.49 1.6 0.8-0.6-0.4-3.9-0.1-4.8s3.2-2.87 2.9-3.78-3.8-0.8-4.6-1.36c-0.7-0.57-1.7-3.96-2.66-3.96zm-0.01 2.51c0.65 0 1.27 2.29 1.87 2.67 0.5 0.38 2.9 0.31 3.1 0.92 0.2 0.62-1.8 1.95-2 2.57-0.2 0.63 0.6 2.83 0.1 3.23-0.6 0.4-2.43-1.1-3.08-1.1s-2.53 1.5-3.05 1.1c-0.53-0.4 0.29-2.6 0.09-3.25-0.2-0.61-2.17-1.95-1.97-2.56 0.2-0.62 2.58-0.53 3.11-0.91 0.52-0.38 1.19-2.67 1.83-2.67z" transform="scale(.265)" fill="#bebebe"/>
</svg>
