<?xml version="1.0" encoding="UTF-8" standalone="no"?>
<svg
   xmlns:dc="http://purl.org/dc/elements/1.1/"
   xmlns:cc="http://creativecommons.org/ns#"
   xmlns:rdf="http://www.w3.org/1999/02/22-rdf-syntax-ns#"
   xmlns:svg="http://www.w3.org/2000/svg"
   xmlns="http://www.w3.org/2000/svg"
   xmlns:sodipodi="http://sodipodi.sourceforge.net/DTD/sodipodi-0.dtd"
   xmlns:inkscape="http://www.inkscape.org/namespaces/inkscape"
   height="16"
   width="18"
   version="1.1"
   viewBox="0 0 4.7624999 4.2333333"
   id="svg8"
   sodipodi:docname="share.svg"
   inkscape:version="0.92.1 r15371">
  <metadata
     id="metadata14">
    <rdf:RDF>
      <cc:Work
         rdf:about="">
        <dc:format>image/svg+xml</dc:format>
        <dc:type
           rdf:resource="http://purl.org/dc/dcmitype/StillImage" />
        <dc:title></dc:title>
      </cc:Work>
    </rdf:RDF>
  </metadata>
  <defs
     id="defs12" />
  <sodipodi:namedview
     pagecolor="#ffffff"
     bordercolor="#666666"
     borderopacity="1"
     objecttolerance="10"
     gridtolerance="10"
     guidetolerance="10"
     inkscape:pageopacity="0"
     inkscape:pageshadow="2"
     inkscape:window-width="1404"
     inkscape:window-height="803"
     id="namedview10"
     showgrid="false"
     inkscape:zoom="15.170654"
     inkscape:cx="8.0128966"
     inkscape:cy="5.1498775"
     inkscape:window-x="514"
     inkscape:window-y="145"
     inkscape:window-maximized="0"
     inkscape:current-layer="svg8" />
  <g
     id="g4520"
     transform="matrix(0.94303743,0,0,0.94117647,3.6476701,0.08568556)">
    <path
       id="path24876-5-1"
       d="M -1.8761904,2.1579175 A 0.78548175,0.78548175 0 0 1 -2.6616721,2.9433993 0.78548175,0.78548175 0 0 1 -3.4471539,2.1579175 0.78548175,0.78548175 0 0 1 -2.6616721,1.3724357 0.78548175,0.78548175 0 0 1 -1.8761904,2.1579175 Z"
       style="color:#000000;display:inline;overflow:visible;visibility:visible;fill:#bebebe;fill-opacity:1;fill-rule:nonzero;stroke:none;stroke-width:0.39897484;marker:none;enable-background:new"
       inkscape:connector-curvature="0" />
    <path
       id="path18806"
       d="M 0.76132162,3.480834 A 0.78548175,0.78548175 0 0 1 -0.02416013,4.2663158 0.78548175,0.78548175 0 0 1 -0.80964188,3.480834 0.78548175,0.78548175 0 0 1 -0.02416013,2.6953523 0.78548175,0.78548175 0 0 1 0.76132162,3.480834 Z"
       style="color:#000000;display:inline;overflow:visible;visibility:visible;fill:#bebebe;fill-opacity:1;fill-rule:nonzero;stroke:none;stroke-width:0.39897484;marker:none;enable-background:new"
       inkscape:connector-curvature="0" />
    <path
       id="path18808"
       d="M 0.76132162,0.83500075 A 0.78548175,0.78548175 0 0 1 -0.02416013,1.6204825 0.78548175,0.78548175 0 0 1 -0.80964188,0.83500075 0.78548175,0.78548175 0 0 1 -0.02416013,0.049519 0.78548175,0.78548175 0 0 1 0.76132162,0.83500075 Z"
       style="color:#000000;display:inline;overflow:visible;visibility:visible;fill:#bebebe;fill-opacity:1;fill-rule:nonzero;stroke:none;stroke-width:0.39897484;marker:none;enable-background:new"
       inkscape:connector-curvature="0" />
    <path
       style="color:#000000;font-style:normal;font-variant:normal;font-weight:normal;font-stretch:normal;font-size:medium;line-height:normal;font-family:Sans;-inkscape-font-specification:Sans;text-indent:0;text-align:start;text-decoration:none;text-decoration-line:none;letter-spacing:normal;word-spacing:normal;text-transform:none;writing-mode:lr-tb;direction:ltr;baseline-shift:baseline;text-anchor:start;display:inline;overflow:visible;visibility:visible;fill:#bebebe;fill-opacity:1;stroke:none;stroke-width:0.52916664;marker:none;enable-background:accumulate"
       id="path18810"
       d="M -0.11516412,0.62002684 -2.7775337,1.9098705 -3.2570909,2.1496492 -2.7775337,2.3894278 -0.12343232,3.7288809 0.11634638,3.2493236 -2.0581978,2.1496492 0.11634638,1.0913159 Z"
       inkscape:connector-curvature="0" />
  </g>
</svg>
